<svg xmlns="http://www.w3.org/2000/svg" width="40" height="25"><path d="M5.363 10.59c-.003-.098-.015-.193-.015-.293 0-5.58 4.52-10.102 10.1-10.102 4.11 0 7.637 2.457 9.217 5.977.824-.566 1.822-.9 2.898-.9 2.77 0 5.024 2.204 5.113 4.955 3.983.34 7.08 4.205 7.08 7.284v.67c0 3.31-3.578 6.66-7.99 6.66H8.233c-4.412 0-7.99-3.35-7.99-6.66v-.666c0-2.55 2.127-6.053 5.12-6.92z" fill="#262261"/><path d="M10.546 11.85h1.573l1.57 7.41h.024l1.664-7.41h1.573l-2.34 9.28h-1.885zm7.357 0h2.938c1.785 0 2.566 1.117 2.566 2.703 0 1.664-.976 2.743-2.717 2.743h-1.3v3.835h-1.484zm1.483 4.328h1.053c.79 0 1.48-.43 1.48-1.6 0-1-.4-1.61-1.588-1.61h-.95zm10.984 1.625v.195c0 1.677-.675 3.314-2.86 3.314-2.34 0-3.067-1.508-3.067-4.823 0-3.318.73-4.827 3.082-4.827 2.64 0 2.795 1.95 2.795 2.912v.17h-1.482v-.156c0-.858-.26-1.847-1.326-1.808-1.092 0-1.586.677-1.586 3.667 0 2.99.494 3.744 1.586 3.744 1.235 0 1.38-1.38 1.38-2.236v-.16z" fill="#fff"/></svg>